name C:\Users\u0150099\Documents\master_thesis\3dpredictsim\Results\debug\Fal_s1_mtjc1_sc_cspx10_oy2_MTc2_MTPm_k1_d01_MTJm_nl_MG_exp5_table_d01_PF_Natali2010_x5_ls146_ig21.mot
datacolumns 128
datarows 4
range 0.00000000 0.03241344
endheader
time	pelvis_tilt	pelvis_list	pelvis_rotation	pelvis_tx	pelvis_ty	pelvis_tz	hip_flexion_l	hip_adduction_l	hip_rotation_l	hip_flexion_r	hip_adduction_r	hip_rotation_r	knee_angle_l	knee_angle_r	ankle_angle_l	ankle_angle_r	subtalar_angle_l	subtalar_angle_r	mtj_angle_l	mtj_angle_r	mtp_angle_l	mtp_angle_r	lumbar_extension	lumbar_bending	lumbar_rotation	arm_flex_l	arm_add_l	arm_rot_l	arm_flex_r	arm_add_r	arm_rot_r	elbow_flex_l	elbow_flex_r	pro_sup_l	pro_sup_r	glut_med1_l/activation	glut_med2_l/activation	glut_med3_l/activation	glut_min1_l/activation	glut_min2_l/activation	glut_min3_l/activation	semimem_l/activation	semiten_l/activation	bifemlh_l/activation	bifemsh_l/activation	sar_l/activation	add_long_l/activation	add_brev_l/activation	add_mag1_l/activation	add_mag2_l/activation	add_mag3_l/activation	tfl_l/activation	pect_l/activation	grac_l/activation	glut_max1_l/activation	glut_max2_l/activation	glut_max3_l/activation	iliacus_l/activation	psoas_l/activation	quad_fem_l/activation	gem_l/activation	peri_l/activation	rect_fem_l/activation	vas_med_l/activation	vas_int_l/activation	vas_lat_l/activation	med_gas_l/activation	lat_gas_l/activation	soleus_l/activation	tib_post_l/activation	flex_dig_l/activation	flex_hal_l/activation	tib_ant_l/activation	per_brev_l/activation	per_long_l/activation	per_tert_l/activation	ext_dig_l/activation	ext_hal_l/activation	ercspn_l/activation	intobl_l/activation	extobl_l/activation	glut_med1_r/activation	glut_med2_r/activation	glut_med3_r/activation	glut_min1_r/activation	glut_min2_r/activation	glut_min3_r/activation	semimem_r/activation	semiten_r/activation	bifemlh_r/activation	bifemsh_r/activation	sar_r/activation	add_long_r/activation	add_brev_r/activation	add_mag1_r/activation	add_mag2_r/activation	add_mag3_r/activation	tfl_r/activation	pect_r/activation	grac_r/activation	glut_max1_r/activation	glut_max2_r/activation	glut_max3_r/activation	iliacus_r/activation	psoas_r/activation	quad_fem_r/activation	gem_r/activation	peri_r/activation	rect_fem_r/activation	vas_med_r/activation	vas_int_r/activation	vas_lat_r/activation	med_gas_r/activation	lat_gas_r/activation	soleus_r/activation	tib_post_r/activation	flex_dig_r/activation	flex_hal_r/activation	tib_ant_r/activation	per_brev_r/activation	per_long_r/activation	per_tert_r/activation	ext_dig_r/activation	ext_hal_r/activation	ercspn_r/activation	intobl_r/activation	extobl_r/activation	
          0.00000000	         -2.92920032	         -0.88484852	          2.68775422	          0.00000000	          0.90525782	         -0.00206376	        -18.73561416	          1.23451577	         11.35262304	         29.83996045	          2.59862125	         -0.72850928	         -6.09319607	        -10.35624363	          8.34508452	          8.33958518	          8.52467374	          0.12410137	         -0.44016259	          2.88002218	          9.32047433	         -6.56002097	         -3.97368368	          0.22153565	         -2.12950083	          4.60609033	        -13.70363507	         19.37039925	         -5.30822899	        -13.47488712	          5.46911280	         33.20439104	         26.11797987	         86.51662706	         86.51662706	          0.38769827	          0.09696361	          0.05689229	          0.54010340	          0.27426684	          0.10464399	          0.05000063	          0.05000009	          0.05000006	          0.09086440	          0.11444079	          0.05000003	          0.05000003	          0.05000006	          0.05000023	          0.05000016	          0.61629744	          0.05000020	          0.05000014	          0.05000077	          0.05000040	          0.05000024	          0.37560425	          0.76250622	          0.05000003	          0.05000022	          0.05000008	          0.27173621	          0.05000009	          0.05000009	          0.05000009	          0.42752861	          0.47107970	          0.35687307	          0.28663720	          0.41805292	          0.39759154	          0.05000001	          0.05000005	          0.05345170	          0.05000003	          0.05000008	          0.09867387	          0.05000000	          0.05000000	          0.05000000	          0.05000011	          0.05000010	          0.05898877	          0.05000008	          0.05000011	          0.05000025	          0.21926041	          0.06962876	          0.27233715	          0.05000074	          0.05000073	          0.14956122	          0.16678395	          0.11264871	          0.14374756	          0.12974427	          0.05000082	          0.05173178	          0.14409961	          0.05900147	          0.05900380	          0.08898474	          0.05000011	          0.05000017	          0.16523534	          0.05000029	          0.05000017	          0.05000012	          0.05880036	          0.05876799	          0.05025464	          0.05000017	          0.05000011	          0.05000001	          0.05000016	          0.09694551	          0.07264047	          0.31564451	          0.14502643	          0.13384594	          0.11547690	          0.52978335	          0.26904023	          0.06623793	          0.08413790	          0.09696350	
          0.01080448	         -2.93017651	         -0.97168015	          2.95718875	          0.01695896	          0.90488551	         -0.00184475	        -18.72217714	          0.93602899	         11.29839621	         29.40984294	          2.98001628	         -0.64999455	         -7.85897533	        -10.48401609	          7.76116368	          7.89530293	          9.49168800	          0.09044648	         -1.66465255	          2.91020503	         11.67193772	         -6.52061383	         -3.81111579	          0.41746494	         -2.23977391	          4.19863602	        -13.65428524	         19.27024209	         -5.97840092	        -13.45182063	          5.14736184	         34.47636522	         25.56190309	         86.51662706	         86.51662706	          0.32853710	          0.08216736	          0.05000001	          0.45768583	          0.23241484	          0.08867575	          0.05000045	          0.05000009	          0.05000006	          0.07699887	          0.09697763	          0.06654547	          0.05000082	          0.05000028	          0.05000072	          0.05000038	          0.52230232	          0.08090527	          0.05000024	          0.05000041	          0.05000028	          0.05000029	          0.31828857	          0.67781802	          0.05000004	          0.05000017	          0.05000006	          0.25677284	          0.07102940	          0.07265083	          0.05840789	          0.36228947	          0.39919484	          0.30970212	          0.24289753	          0.35426015	          0.33692107	          0.05000000	          0.05000029	          0.05001471	          0.05000002	          0.05000001	          0.08361664	          0.05000002	          0.05261454	          0.05001809	          0.05900372	          0.05900373	          0.05000006	          0.05900375	          0.05900374	          0.05900364	          0.18917630	          0.05900381	          0.23524233	          0.05900374	          0.05000025	          0.13503493	          0.16966771	          0.09545908	          0.12181256	          0.15131371	          0.05000009	          0.08213119	          0.12755430	          0.05000013	          0.05000015	          0.16988340	          0.06056386	          0.05000027	          0.36129650	          0.20191693	          0.09739878	          0.05000004	          0.05000009	          0.05000009	          0.05000009	          0.05592872	          0.06049806	          0.05000005	          0.05900356	          0.08215229	          0.08216676	          0.32625661	          0.16764386	          0.14494106	          0.20584200	          0.56657443	          0.35686359	          0.05613029	          0.07129880	          0.08216727	
          0.02160896	         -2.92882818	         -1.07405866	          3.21023084	          0.03421143	          0.90460541	         -0.00162245	        -18.61475361	          0.61980182	         11.20154656	         28.98291406	          3.31741059	         -0.54162716	         -9.74230207	        -11.24636964	          6.94352742	          7.08405890	         10.48935291	          0.08855089	         -2.99947042	          2.94590184	         14.22044409	         -6.52538954	         -3.62949234	          0.63381537	         -2.33965471	          3.69948147	        -13.61117501	         19.12556456	         -6.66771241	        -13.45416459	          5.01150601	         35.81386425	         25.01320735	         86.51662706	         86.51662706	          0.27840367	          0.06962897	          0.05900371	          0.38784483	          0.19694929	          0.07514421	          0.05000731	          0.05000059	          0.05001408	          0.06524916	          0.08217927	          0.15940955	          0.12750919	          0.17427302	          0.05900233	          0.05908667	          0.44260129	          0.06855976	          0.05900363	          0.05276055	          0.05889142	          0.05900336	          0.26971902	          0.61495023	          0.05900373	          0.05900374	          0.05009177	          0.22976144	          0.12147925	          0.12594157	          0.10058619	          0.30700555	          0.33827932	          0.26244282	          0.20583235	          0.30020153	          0.28550835	          0.07990243	          0.05000002	          0.05000002	          0.05000005	          0.05000001	          0.07085708	          0.07949435	          0.05900376	          0.05900384	          0.05000000	          0.05000003	          0.14002179	          0.05000003	          0.05000003	          0.05000004	          0.16030877	          0.05000011	          0.19934530	          0.05000006	          0.06962848	          0.11442927	          0.33210385	          0.36616605	          0.25993661	          0.17355232	          0.05000033	          0.06963131	          0.10810146	          0.10861164	          0.12932605	          0.17740881	          0.05132221	          0.06962870	          0.58970508	          0.17110526	          0.08253614	          0.05900377	          0.05900392	          0.05900399	          0.05900383	          0.06962878	          0.06962885	          0.06962879	          0.05000005	          0.06961629	          0.06962861	          0.37014179	          0.18048104	          0.14390958	          0.36454110	          0.58746455	          0.30240771	          0.05000000	          0.06041889	          0.06962887	
          0.03241344	         -2.92509765	         -1.21188325	          3.44042133	          0.05165273	          0.90441047	         -0.00141910	        -18.39227637	          0.28458164	         11.07085583	         28.51686060	          3.56872581	         -0.37572522	        -11.77003763	        -12.26284389	          5.87957680	          6.05392472	         11.47817403	          0.12343332	         -4.34623786	          3.01678435	         16.80252128	         -6.47764950	         -3.43398235	          0.88994491	         -2.42704055	          3.12510576	        -13.56960146	         18.95320929	         -7.34557260	        -13.48651289	          5.05329819	         37.20390952	         24.44321128	         86.51662706	         86.51662706	          0.23592046	          0.05900387	          0.05000001	          0.32866133	          0.16689564	          0.06367752	          0.05000042	          0.05000007	          0.05000004	          0.05529243	          0.06963908	          0.13508433	          0.17234130	          0.14767971	          0.05000042	          0.05007045	          0.53794324	          0.05900944	          0.05000018	          0.05000032	          0.05000019	          0.05000017	          0.22856100	          0.60701218	          0.05000003	          0.05000013	          0.05000001	          0.19470079	          0.10294213	          0.10672350	          0.08523723	          0.26015774	          0.28665926	          0.22239510	          0.17442317	          0.25439201	          0.24194096	          0.26473967	          0.10976006	          0.05595341	          0.44777028	          0.05000003	          0.06004458	          0.11213142	          0.05000003	          0.05000010	          0.35073957	          0.35595237	          0.38609934	          0.44555114	          0.29927488	          0.24166013	          0.13584632	          0.12056658	          0.16892605	          0.06962884	          0.05900359	          0.09696786	          0.28142622	          0.31029065	          0.22027183	          0.24189203	          0.05000013	          0.05900627	          0.14971856	          0.26888873	          0.22967096	          0.25577764	          0.05000068	          0.05900366	          0.49971848	          0.14499533	          0.10810313	          0.05000005	          0.05000018	          0.05000024	          0.05000010	          0.05900371	          0.05900377	          0.05900372	          0.05899600	          0.05899313	          0.05900358	          0.47147250	          0.15294038	          0.14205387	          0.30891361	          0.75901863	          0.59449348	          0.07294693	          0.07963836	          0.05900379	
